# xmcd
#
# Track frame offsets:
# 150
# 21864
# 36395
# 45563
# 50194
# 63282
# 81325
# 95508
# 118895
# 121474
# 132686
# 137177
# 149673
# 161792
# 167233
#
# Disc length: 2393 seconds
#
# Revision: 1
# Processed by: cddbd v1.5.2PL0 Copyright (c) Steve Scherf et al.
# Submitted via: CedeCatalogueitor 2.5 http://usuarios.lycos.es/kakasboy
#
DISCID=ef09570f
DTITLE=Bill 'Sauce Boss' Wharton - Hot 'n Heavy
DYEAR=1900
DGENRE=
TTITLE0=Marquis De Swamp
TTITLE1=Rusty Blues
TTITLE2=Get Naked And Surf
TTITLE3=Okra
TTITLE4=Lonesome Rider
TTITLE5=That's How It Feels
TTITLE6=Gonna Be All Right
TTITLE7=Don't Know How To Tell You
TTITLE8=Hot Sauce
TTITLE9=Crazy Bout Ya Baby
TTITLE10=Andouille
TTITLE11=Old Dog Eared Copy
TTITLE12=Hot 'n Heavy
TTITLE13=Chicken In The Gumbo
TTITLE14=Somewhere Down The Road
EXTD=
EXTT0=
EXTT1=
EXTT2=
EXTT3=
EXTT4=
EXTT5=
EXTT6=
EXTT7=
EXTT8=
EXTT9=
EXTT10=
EXTT11=
EXTT12=
EXTT13=
EXTT14=
PLAYORDER=
